<svg height="512" viewBox="0 0 512 512" width="512" xmlns="http://www.w3.org/2000/svg"><g><g><path d="m496 76v300h-480v-300a19.994 19.994 0 0 1 20-20h440a19.994 19.994 0 0 1 20 20z" fill="#006df0"/><path d="m496 376v28a19.994 19.994 0 0 1 -20 20h-440a19.994 19.994 0 0 1 -20-20v-28z" fill="#e0e0e2"/><path d="m328 464h-144l16-40h112z" fill="#787680"/><path d="m136 464h240v24h-240z" fill="#e0e0e2"/><path d="m384 36v20l-128 64-128-64v-20a12 12 0 0 1 12-12h232a12 12 0 0 1 12 12z" fill="#e0e0e2"/><path d="m384 56v132a12 12 0 0 1 -12 12h-232a12 12 0 0 1 -12-12v-132l128 64z" fill="#c6c5ca"/></g><g><path d="m476 48h-84v-12a20.02 20.02 0 0 0 -20-20h-232a20.02 20.02 0 0 0 -20 20v12h-84a28.031 28.031 0 0 0 -28 28v328a28.031 28.031 0 0 0 28 28h152.18l-9.6 24h-42.58a8 8 0 0 0 -8 8v24a8 8 0 0 0 8 8h240a8 8 0 0 0 8-8v-24a8 8 0 0 0 -8-8h-42.58l-9.6-24h152.18a28.031 28.031 0 0 0 28-28v-328a28.031 28.031 0 0 0 -28-28zm-340-12a4 4 0 0 1 4-4h232a4 4 0 0 1 4 4v15.06l-120 60-120-60zm0 32.94 116.42 58.22a8.049 8.049 0 0 0 7.16 0l116.42-58.22v119.06a4 4 0 0 1 -4 4h-232a4 4 0 0 1 -4-4zm-112 7.06a12.01 12.01 0 0 1 12-12h84v124a20.02 20.02 0 0 0 20 20h76v160h-192zm344 396v8h-224v-8zm-172.18-16 9.6-24h101.16l9.6 24zm292.18-52a12.01 12.01 0 0 1 -12 12h-440a12.01 12.01 0 0 1 -12-12v-20h464zm0-36h-256v-160h16v88a8 8 0 0 0 16 0v-88h16v80a8 8 0 0 0 16 0v-80h76a20.02 20.02 0 0 0 20-20v-124h84a12.01 12.01 0 0 1 12 12z"/><path d="m256 312a8 8 0 0 0 -8 8v8a8 8 0 0 0 16 0v-8a8 8 0 0 0 -8-8z"/></g></g></svg>